<svg xmlns="http://www.w3.org/2000/svg" xmlns:xlink="http://www.w3.org/1999/xlink" contentStyleType="text/css" data-diagram-type="DESCRIPTION" height="681px" preserveAspectRatio="none" style="width:1600px;height:681px;background:#FFFFFF;" version="1.1" viewBox="0 0 1600 681" width="1600px" zoomAndPan="magnify"><title>EduMart LMS - Component Diagram</title><defs/><g><g class="title" data-source-line="1"><text fill="#000000" font-family="sans-serif" font-size="14" font-weight="bold" lengthAdjust="spacing" textLength="281.8389" x="652.3718" y="22.9951">EduMart LMS - Component Diagram</text></g><!--cluster UserMgmt--><g class="cluster" data-entity="UserMgmt" data-source-line="10" data-uid="ent0006" id="cluster_UserMgmt"><rect fill="none" height="223.95" rx="2.5" ry="2.5" style="stroke:#181818;stroke-width:1;" width="318" x="177.24" y="451.8469"/><rect fill="none" height="10" style="stroke:#181818;stroke-width:1;" width="15" x="475.24" y="456.8469"/><rect fill="none" height="2" style="stroke:#181818;stroke-width:1;" width="4" x="473.24" y="458.8469"/><rect fill="none" height="2" style="stroke:#181818;stroke-width:1;" width="4" x="473.24" y="462.8469"/><text fill="#000000" font-family="sans-serif" font-size="14" font-weight="bold" lengthAdjust="spacing" textLength="144.0264" x="264.2268" y="477.842">User Management</text></g><!--cluster Course--><g class="cluster" data-entity="Course" data-source-line="15" data-uid="ent0009" id="cluster_Course"><rect fill="none" height="223.95" rx="2.5" ry="2.5" style="stroke:#181818;stroke-width:1;" width="353" x="535.24" y="302.3969"/><rect fill="none" height="10" style="stroke:#181818;stroke-width:1;" width="15" x="868.24" y="307.3969"/><rect fill="none" height="2" style="stroke:#181818;stroke-width:1;" width="4" x="866.24" y="309.3969"/><rect fill="none" height="2" style="stroke:#181818;stroke-width:1;" width="4" x="866.24" y="313.3969"/><text fill="#000000" font-family="sans-serif" font-size="14" font-weight="bold" lengthAdjust="spacing" textLength="124.8311" x="649.3245" y="328.392">Course Delivery</text></g><!--cluster Assessment--><g class="cluster" data-entity="Assessment" data-source-line="20" data-uid="ent0012" id="cluster_Assessment"><rect fill="none" height="223.95" rx="2.5" ry="2.5" style="stroke:#181818;stroke-width:1;" width="228" x="928.24" y="152.9569"/><rect fill="none" height="10" style="stroke:#181818;stroke-width:1;" width="15" x="1136.24" y="157.9569"/><rect fill="none" height="2" style="stroke:#181818;stroke-width:1;" width="4" x="1134.24" y="159.9569"/><rect fill="none" height="2" style="stroke:#181818;stroke-width:1;" width="4" x="1134.24" y="163.9569"/><text fill="#000000" font-family="sans-serif" font-size="14" font-weight="bold" lengthAdjust="spacing" textLength="153.0908" x="965.6946" y="178.952">Assessment Engine</text></g><!--cluster Analytics--><g class="cluster" data-entity="Analytics" data-source-line="24" data-uid="ent0014" id="cluster_Analytics"><rect fill="none" height="183.16" rx="2.5" ry="2.5" style="stroke:#181818;stroke-width:1;" width="202" x="1196.24" y="44.2969"/><rect fill="none" height="10" style="stroke:#181818;stroke-width:1;" width="15" x="1378.24" y="49.2969"/><rect fill="none" height="2" style="stroke:#181818;stroke-width:1;" width="4" x="1376.24" y="51.2969"/><rect fill="none" height="2" style="stroke:#181818;stroke-width:1;" width="4" x="1376.24" y="55.2969"/><text fill="#000000" font-family="sans-serif" font-size="14" font-weight="bold" lengthAdjust="spacing" textLength="135.0029" x="1229.7385" y="70.292">Analytics Module</text></g><!--entity IUserAuth--><g class="entity" data-entity="IUserAuth" data-source-line="11" data-uid="ent0007" id="entity_IUserAuth"><rect fill="#F1F1F1" height="46.2969" rx="2.5" ry="2.5" style="stroke:#181818;stroke-width:0.5;" width="108.8516" x="362.81" y="605.4969"/><rect fill="#F1F1F1" height="10" style="stroke:#181818;stroke-width:0.5;" width="15" x="451.6616" y="610.4969"/><rect fill="#F1F1F1" height="2" style="stroke:#181818;stroke-width:0.5;" width="4" x="449.6616" y="612.4969"/><rect fill="#F1F1F1" height="2" style="stroke:#181818;stroke-width:0.5;" width="4" x="449.6616" y="616.4969"/><text fill="#000000" font-family="sans-serif" font-size="14" lengthAdjust="spacing" textLength="68.8516" x="377.81" y="638.492">IUserAuth</text></g><!--entity IRoleService--><g class="entity" data-entity="IRoleService" data-source-line="12" data-uid="ent0008" id="entity_IRoleService"><rect fill="#F1F1F1" height="46.2969" rx="2.5" ry="2.5" style="stroke:#181818;stroke-width:0.5;" width="126.666" x="200.91" y="605.4969"/><rect fill="#F1F1F1" height="10" style="stroke:#181818;stroke-width:0.5;" width="15" x="307.576" y="610.4969"/><rect fill="#F1F1F1" height="2" style="stroke:#181818;stroke-width:0.5;" width="4" x="305.576" y="612.4969"/><rect fill="#F1F1F1" height="2" style="stroke:#181818;stroke-width:0.5;" width="4" x="305.576" y="616.4969"/><text fill="#000000" font-family="sans-serif" font-size="14" lengthAdjust="spacing" textLength="86.666" x="215.91" y="638.492">IRoleService</text></g><!--entity ICourseContent--><g class="entity" data-entity="ICourseContent" data-source-line="16" data-uid="ent0010" id="entity_ICourseContent"><rect fill="#F1F1F1" height="46.2969" rx="2.5" ry="2.5" style="stroke:#181818;stroke-width:0.5;" width="148.6846" x="715.9" y="456.0569"/><rect fill="#F1F1F1" height="10" style="stroke:#181818;stroke-width:0.5;" width="15" x="844.5846" y="461.0569"/><rect fill="#F1F1F1" height="2" style="stroke:#181818;stroke-width:0.5;" width="4" x="842.5846" y="463.0569"/><rect fill="#F1F1F1" height="2" style="stroke:#181818;stroke-width:0.5;" width="4" x="842.5846" y="467.0569"/><text fill="#000000" font-family="sans-serif" font-size="14" lengthAdjust="spacing" textLength="108.6846" x="730.9" y="489.052">ICourseContent</text></g><!--entity IScheduling--><g class="entity" data-entity="IScheduling" data-source-line="17" data-uid="ent0011" id="entity_IScheduling"><rect fill="#F1F1F1" height="46.2969" rx="2.5" ry="2.5" style="stroke:#181818;stroke-width:0.5;" width="121.498" x="559.49" y="456.0569"/><rect fill="#F1F1F1" height="10" style="stroke:#181818;stroke-width:0.5;" width="15" x="660.988" y="461.0569"/><rect fill="#F1F1F1" height="2" style="stroke:#181818;stroke-width:0.5;" width="4" x="658.988" y="463.0569"/><rect fill="#F1F1F1" height="2" style="stroke:#181818;stroke-width:0.5;" width="4" x="658.988" y="467.0569"/><text fill="#000000" font-family="sans-serif" font-size="14" lengthAdjust="spacing" textLength="81.498" x="574.49" y="489.052">IScheduling</text></g><!--entity IAssessmentService--><g class="entity" data-entity="IAssessmentService" data-source-line="21" data-uid="ent0013" id="entity_IAssessmentService"><rect fill="#F1F1F1" height="46.2969" rx="2.5" ry="2.5" style="stroke:#181818;stroke-width:0.5;" width="179.8496" x="952.31" y="306.6069"/><rect fill="#F1F1F1" height="10" style="stroke:#181818;stroke-width:0.5;" width="15" x="1112.1596" y="311.6069"/><rect fill="#F1F1F1" height="2" style="stroke:#181818;stroke-width:0.5;" width="4" x="1110.1596" y="313.6069"/><rect fill="#F1F1F1" height="2" style="stroke:#181818;stroke-width:0.5;" width="4" x="1110.1596" y="317.6069"/><text fill="#000000" font-family="sans-serif" font-size="14" lengthAdjust="spacing" textLength="139.8496" x="967.31" y="339.602">IAssessmentService</text></g><!--entity IAnalyticsReport--><g class="entity" data-entity="IAnalyticsReport" data-source-line="25" data-uid="ent0015" id="entity_IAnalyticsReport"><rect fill="#F1F1F1" height="46.2969" rx="2.5" ry="2.5" style="stroke:#181818;stroke-width:0.5;" width="154.7412" x="1219.87" y="157.1669"/><rect fill="#F1F1F1" height="10" style="stroke:#181818;stroke-width:0.5;" width="15" x="1354.6112" y="162.1669"/><rect fill="#F1F1F1" height="2" style="stroke:#181818;stroke-width:0.5;" width="4" x="1352.6112" y="164.1669"/><rect fill="#F1F1F1" height="2" style="stroke:#181818;stroke-width:0.5;" width="4" x="1352.6112" y="168.1669"/><text fill="#000000" font-family="sans-serif" font-size="14" lengthAdjust="spacing" textLength="114.7412" x="1234.87" y="190.162">IAnalyticsReport</text></g><!--entity OAuth--><g class="entity" data-entity="OAuth" data-source-line="4" data-uid="ent0002" id="entity_OAuth"><rect fill="#F1F1F1" height="62.5938" rx="2.5" ry="2.5" style="stroke:#181818;stroke-width:0.5;" width="146.4766" x="7" y="597.3469"/><rect fill="#F1F1F1" height="10" style="stroke:#181818;stroke-width:0.5;" width="15" x="133.4766" y="602.3469"/><rect fill="#F1F1F1" height="2" style="stroke:#181818;stroke-width:0.5;" width="4" x="131.4766" y="604.3469"/><rect fill="#F1F1F1" height="2" style="stroke:#181818;stroke-width:0.5;" width="4" x="131.4766" y="608.3469"/><text fill="#000000" font-family="sans-serif" font-size="14" font-style="italic" lengthAdjust="spacing" textLength="75.2295" x="37.6235" y="630.342">&#171;external&#187;</text><text fill="#000000" font-family="sans-serif" font-size="14" lengthAdjust="spacing" textLength="106.4766" x="22" y="646.6389">OAuth Provider</text></g><!--entity Media--><g class="entity" data-entity="Media" data-source-line="5" data-uid="ent0003" id="entity_Media"><rect fill="#F1F1F1" height="62.5938" rx="2.5" ry="2.5" style="stroke:#181818;stroke-width:0.5;" width="138.2393" x="912.12" y="447.9069"/><rect fill="#F1F1F1" height="10" style="stroke:#181818;stroke-width:0.5;" width="15" x="1030.3593" y="452.9069"/><rect fill="#F1F1F1" height="2" style="stroke:#181818;stroke-width:0.5;" width="4" x="1028.3593" y="454.9069"/><rect fill="#F1F1F1" height="2" style="stroke:#181818;stroke-width:0.5;" width="4" x="1028.3593" y="458.9069"/><text fill="#000000" font-family="sans-serif" font-size="14" font-style="italic" lengthAdjust="spacing" textLength="75.2295" x="938.6249" y="480.902">&#171;external&#187;</text><text fill="#000000" font-family="sans-serif" font-size="14" lengthAdjust="spacing" textLength="98.2393" x="927.12" y="497.1989">Media Service</text></g><!--entity AutoGrader--><g class="entity" data-entity="AutoGrader" data-source-line="6" data-uid="ent0004" id="entity_AutoGrader"><rect fill="#F1F1F1" height="62.5938" rx="2.5" ry="2.5" style="stroke:#181818;stroke-width:0.5;" width="177.1357" x="1180.67" y="298.4569"/><rect fill="#F1F1F1" height="10" style="stroke:#181818;stroke-width:0.5;" width="15" x="1337.8057" y="303.4569"/><rect fill="#F1F1F1" height="2" style="stroke:#181818;stroke-width:0.5;" width="4" x="1335.8057" y="305.4569"/><rect fill="#F1F1F1" height="2" style="stroke:#181818;stroke-width:0.5;" width="4" x="1335.8057" y="309.4569"/><text fill="#000000" font-family="sans-serif" font-size="14" font-style="italic" lengthAdjust="spacing" textLength="75.2295" x="1226.6231" y="331.452">&#171;external&#187;</text><text fill="#000000" font-family="sans-serif" font-size="14" lengthAdjust="spacing" textLength="137.1357" x="1195.67" y="347.7489">AutoGrader Service</text></g><!--entity BigData--><g class="entity" data-entity="BigData" data-source-line="7" data-uid="ent0005" id="entity_BigData"><rect fill="#F1F1F1" height="62.5938" rx="2.5" ry="2.5" style="stroke:#181818;stroke-width:0.5;" width="172.6924" x="1421.89" y="149.0169"/><rect fill="#F1F1F1" height="10" style="stroke:#181818;stroke-width:0.5;" width="15" x="1574.5824" y="154.0169"/><rect fill="#F1F1F1" height="2" style="stroke:#181818;stroke-width:0.5;" width="4" x="1572.5824" y="156.0169"/><rect fill="#F1F1F1" height="2" style="stroke:#181818;stroke-width:0.5;" width="4" x="1572.5824" y="160.0169"/><text fill="#000000" font-family="sans-serif" font-size="14" font-style="italic" lengthAdjust="spacing" textLength="75.2295" x="1465.6214" y="182.012">&#171;external&#187;</text><text fill="#000000" font-family="sans-serif" font-size="14" lengthAdjust="spacing" textLength="132.6924" x="1436.89" y="198.3089">Big Data Processor</text></g><!--link UserMgmt to IUserAuth--><g class="link" data-entity-1="UserMgmt" data-entity-2="IUserAuth" data-source-line="29" data-uid="lnk16" id="link_UserMgmt_IUserAuth"><path d="M417.24,480.3069 C417.24,483.6569 417.24,558.8669 417.24,599.2569" fill="none" id="UserMgmt-to-IUserAuth" style="stroke:#181818;stroke-width:1;"/><polygon fill="#181818" points="417.24,605.2569,421.24,596.2569,417.24,600.2569,413.24,596.2569,417.24,605.2569" style="stroke:#181818;stroke-width:1;"/></g><!--link UserMgmt to IRoleService--><g class="link" data-entity-1="UserMgmt" data-entity-2="IRoleService" data-source-line="30" data-uid="lnk17" id="link_UserMgmt_IRoleService"><path d="M417.13,480.3069 C413.65,483.6569 333.7103,560.7033 291.8003,601.0933" fill="none" id="UserMgmt-to-IRoleService" style="stroke:#181818;stroke-width:1;"/><polygon fill="#181818" points="287.48,605.2569,296.7361,601.8917,291.0802,601.7872,291.1847,596.1313,287.48,605.2569" style="stroke:#181818;stroke-width:1;"/></g><!--link Course to ICourseContent--><g class="link" data-entity-1="Course" data-entity-2="ICourseContent" data-source-line="32" data-uid="lnk18" id="link_Course_ICourseContent"><path d="M779.25,330.8669 C779.5,334.2169 785.1026,409.4336 788.1226,449.8236" fill="none" id="Course-to-ICourseContent" style="stroke:#181818;stroke-width:1;"/><polygon fill="#181818" points="788.57,455.8069,791.8878,446.5337,788.1972,450.8208,783.9101,447.1302,788.57,455.8069" style="stroke:#181818;stroke-width:1;"/></g><!--link Course to IScheduling--><g class="link" data-entity-1="Course" data-entity-2="IScheduling" data-source-line="33" data-uid="lnk19" id="link_Course_IScheduling"><path d="M779.12,330.9069 C776.67,333.9769 736.85,383.5569 699.24,417.9069 C684.59,431.2869 671.9959,441.2653 657.2359,452.1053" fill="none" id="Course-to-IScheduling" style="stroke:#181818;stroke-width:1;"/><polygon fill="#181818" points="652.4,455.6569,662.0216,453.5534,656.4299,452.6972,657.2862,447.1055,652.4,455.6569" style="stroke:#181818;stroke-width:1;"/></g><!--link Assessment to IAssessmentService--><g class="link" data-entity-1="Assessment" data-entity-2="IAssessmentService" data-source-line="35" data-uid="lnk20" id="link_Assessment_IAssessmentService"><path d="M1092.2,181.4169 C1091.07,184.7669 1065.4569,260.2847 1051.7569,300.6847" fill="none" id="Assessment-to-IAssessmentService" style="stroke:#181818;stroke-width:1;"/><polygon fill="#181818" points="1049.83,306.3669,1056.5084,299.1282,1051.4357,301.6317,1048.9322,296.559,1049.83,306.3669" style="stroke:#181818;stroke-width:1;"/></g><!--link Analytics to IAnalyticsReport--><g class="link" data-entity-1="Analytics" data-entity-2="IAnalyticsReport" data-source-line="36" data-uid="lnk21" id="link_Analytics_IAnalyticsReport"><path d="M1204.52,72.1769 C1207.28,73.7669 1229.82,86.9769 1244.24,102.0169 C1260.23,118.6969 1271.6814,135.5189 1281.4814,151.7689" fill="none" id="Analytics-to-IAnalyticsReport" style="stroke:#181818;stroke-width:1;"/><polygon fill="#181818" points="1284.58,156.9069,1283.3574,147.1342,1281.9978,152.6252,1276.5068,151.2656,1284.58,156.9069" style="stroke:#181818;stroke-width:1;"/></g><!--link Course to UserMgmt--><g class="link" data-entity-1="Course" data-entity-2="UserMgmt" data-source-line="39" data-uid="lnk22" id="link_Course_UserMgmt"><path d="M534.7757,407.5703 C533.8073,408.037 532.8385,408.5078 531.8697,408.9824 C529.9319,409.9315 527.9939,410.8958 526.0578,411.8732 C518.3135,415.7826 510.6001,419.9009 503.0614,424.0923 C487.9841,432.4753 473.6056,441.1513 461.0763,449.0356 C460.2932,449.5284 459.5173,450.0181 458.7489,450.5044 C458.3648,450.7476 457.9825,450.9899 457.6021,451.2313 C457.4119,451.3521 457.2222,451.4726 457.0329,451.5929 C456.9383,451.653 461.9064,448.4929 461.812,448.5529" fill="none" id="Course-to-UserMgmt" style="stroke:#181818;stroke-width:1;"/><polygon fill="#181818" points="456.7494,451.7731,466.4902,450.3179,460.9683,449.0896,462.1965,443.5677,456.7494,451.7731" style="stroke:#181818;stroke-width:1;"/><text fill="#000000" font-family="sans-serif" font-size="13" lengthAdjust="spacing" textLength="140.2705" x="550.24" y="413.9738">Access Control (sync)</text></g><!--link UserMgmt to OAuth--><g class="link" data-entity-1="UserMgmt" data-entity-2="OAuth" data-source-line="40" data-uid="lnk23" id="link_UserMgmt_OAuth"><path d="M177.2015,558.2149 C177.0993,558.2718 176.9971,558.3288 176.8949,558.3858 C176.6905,558.4999 176.4862,558.6142 176.2818,558.7288 C175.8732,558.958 175.4647,559.1881 175.0564,559.4191 C174.2398,559.8811 173.4239,560.3469 172.6089,560.8161 C166.0891,564.5697 159.6281,568.5438 153.3313,572.6081 C140.7375,580.7369 133.6044,585.6328 123.1644,593.4428" fill="none" id="UserMgmt-to-OAuth" style="stroke:#181818;stroke-width:1;"/><polygon fill="#181818" points="118.36,597.0369,127.9627,594.8487,122.3637,594.0418,123.1706,588.4428,118.36,597.0369" style="stroke:#181818;stroke-width:1;"/><text fill="#000000" font-family="sans-serif" font-size="13" lengthAdjust="spacing" textLength="124.2617" x="193.24" y="563.4138">OAuth Login (sync)</text></g><!--link Course to Media--><g class="link" data-entity-1="Course" data-entity-2="Media" data-source-line="43" data-uid="lnk24" id="link_Course_Media"><path d="M888.6801,410.6464 C889.223,411.0427 889.7656,411.4388 890.3078,411.8345 C907.6581,424.4994 919.7614,433.3342 934.2339,443.8992" fill="none" id="Course-to-Media" style="stroke:#181818;stroke-width:1;stroke-dasharray:7.0,7.0;"/><polygon fill="#181818" points="939.08,447.4369,934.1693,438.8996,935.0416,444.4888,929.4524,445.3611,939.08,447.4369" style="stroke:#181818;stroke-width:1;"/><text fill="#000000" font-family="sans-serif" font-size="13" lengthAdjust="spacing" textLength="162.8682" x="899.24" y="413.9738">Video Processing (async)</text></g><!--link Assessment to Course--><g class="link" data-entity-1="Assessment" data-entity-2="Course" data-source-line="44" data-uid="lnk25" id="link_Assessment_Course"><path d="M927.388,238.863 C922.2896,240.4391 917.2313,241.9744 912.24,243.4569 C898.19,247.6369 893.44,245.0969 880.24,251.4569 C855.575,263.3469 831.1075,281.8544 812.4325,297.7794 C811.2653,298.7747 810.1208,299.7599 809.0002,300.7328 C808.4399,301.2192 812.3995,297.7497 811.8513,298.2297" fill="none" id="Assessment-to-Course" style="stroke:#181818;stroke-width:1;stroke-dasharray:7.0,7.0;"/><polygon fill="#181818" points="807.3375,302.1826,816.7435,299.2625,811.099,298.8885,811.473,293.2441,807.3375,302.1826" style="stroke:#181818;stroke-width:1;"/><text fill="#000000" font-family="sans-serif" font-size="13" lengthAdjust="spacing" textLength="172.7451" x="881.24" y="264.5238">Fetch Course Data (async)</text></g><!--link Assessment to AutoGrader--><g class="link" data-entity-1="Assessment" data-entity-2="AutoGrader" data-source-line="45" data-uid="lnk26" id="link_Assessment_AutoGrader"><path d="M1156.9107,235.1855 C1157.3722,235.5699 1157.8346,235.9552 1158.298,236.3411 C1159.2246,237.113 1160.1547,237.8879 1161.088,238.6653 C1162.9544,240.2201 1164.8331,241.7851 1166.7206,243.3574 C1174.2704,249.6466 1181.9598,256.0521 1189.5616,262.3845 C1204.765,275.0494 1215.0075,283.5816 1227.69,294.1466" fill="none" id="Assessment-to-AutoGrader" style="stroke:#181818;stroke-width:1;stroke-dasharray:7.0,7.0;"/><polygon fill="#181818" points="1232.3,297.9869,1227.9452,289.1531,1228.4583,294.7866,1222.8248,295.2998,1232.3,297.9869" style="stroke:#181818;stroke-width:1;"/><text fill="#000000" font-family="sans-serif" font-size="13" lengthAdjust="spacing" textLength="177.0044" x="1197.24" y="264.5238">Grade Submissions (async)</text></g><!--link Analytics to UserMgmt--><g class="link" data-entity-1="Analytics" data-entity-2="UserMgmt" data-source-line="47" data-uid="lnk27" id="link_Analytics_UserMgmt"><path d="M1196.1192,72.1032 C1195.9103,72.1059 1195.6976,72.1086 1195.4812,72.1114 C1194.6154,72.1227 1193.6897,72.135 1192.7059,72.1486 C1190.7383,72.1757 1188.5385,72.2076 1186.1218,72.2449 C1176.4548,72.3941 1163.3171,72.6301 1147.6892,72.9933 C1116.4334,73.7197 1075.2169,74.955 1031.8838,77.0231 C945.2175,81.1594 850.085,88.6269 809.24,102.0169 C746.86,122.4669 671.25,132.9269 527.24,286.3969 C494.14,321.6669 466.975,368.6819 447.9213,407.3369 C443.1578,417.0006 438.9013,426.1419 435.1858,434.4465 C433.328,438.5988 431.6055,442.5419 430.0225,446.2367 C429.231,448.084 430.7966,444.3369 430.0753,446.0551" fill="none" id="Analytics-to-UserMgmt" style="stroke:#181818;stroke-width:1;stroke-dasharray:7.0,7.0;"/><polygon fill="#181818" points="427.7531,451.5875,434.9247,444.8371,429.6883,446.9772,427.5482,441.7408,427.7531,451.5875" style="stroke:#181818;stroke-width:1;"/><text fill="#000000" font-family="sans-serif" font-size="13" lengthAdjust="spacing" textLength="163.3379" x="560.24" y="264.5238">Logs &amp; Feedback (async)</text></g><!--link Analytics to Course--><g class="link" data-entity-1="Analytics" data-entity-2="Course" data-source-line="48" data-uid="lnk28" id="link_Analytics_Course"><path d="M1195.8197,71.9762 C1195.3685,71.9759 1194.9004,71.9758 1194.4155,71.9758 C1193.4458,71.976 1192.4093,71.977 1191.3083,71.9792 C1189.1063,71.9836 1186.6463,71.9927 1183.9464,72.0086 C1173.1469,72.0723 1158.5095,72.2452 1141.1952,72.6659 C1106.5666,73.5075 1061.2306,75.3406 1014.4763,79.2744 C920.9675,87.1419 821.785,103.4119 791.24,136.9569 C762.935,168.0369 759.585,214.9869 763.4825,254.6556 C764.4569,264.5728 765.8842,274.0349 767.4879,282.6802 C768.2897,287.0029 769.1356,291.1213 769.9909,294.9903 C770.4186,296.9248 770.8487,298.797 771.2768,300.6011 C771.3838,301.0522 770.0839,295.6662 770.1906,296.1087" fill="none" id="Analytics-to-Course" style="stroke:#181818;stroke-width:1;stroke-dasharray:7.0,7.0;"/><polygon fill="#181818" points="771.5974,301.9414,773.3757,292.2544,770.4251,297.0808,765.5987,294.1302,771.5974,301.9414" style="stroke:#181818;stroke-width:1;"/><text fill="#000000" font-family="sans-serif" font-size="13" lengthAdjust="spacing" textLength="127.772" x="792.24" y="184.8838">Usage Data (async)</text></g><!--link Analytics to Assessment--><g class="link" data-entity-1="Analytics" data-entity-2="Assessment" data-source-line="49" data-uid="lnk29" id="link_Analytics_Assessment"><path d="M1196.1993,73.1656 C1196.0981,73.1809 1195.9961,73.1964 1195.8932,73.212 C1195.6875,73.2432 1195.4786,73.275 1195.2665,73.3074 C1194.4182,73.4369 1193.5195,73.5758 1192.5745,73.7241 C1190.6845,74.0206 1188.6096,74.3544 1186.3841,74.7244 C1177.4819,76.2044 1166.1687,78.2644 1154.6325,80.8419 C1131.56,85.9969 1107.595,93.2219 1100.24,102.0169 C1089.505,114.8469 1087.2925,133.3819 1087.865,149.0856 C1087.9008,150.0671 1087.9474,151.0375 1088.0036,151.9948 C1088.0176,152.2341 1087.6493,146.4849 1087.6645,146.7225" fill="none" id="Analytics-to-Assessment" style="stroke:#181818;stroke-width:1;stroke-dasharray:7.0,7.0;"/><polygon fill="#181818" points="1088.0474,152.7103,1091.4649,143.4733,1087.7283,147.7205,1083.4812,143.9839,1088.0474,152.7103" style="stroke:#181818;stroke-width:1;"/><text fill="#000000" font-family="sans-serif" font-size="13" lengthAdjust="spacing" textLength="134.7925" x="1101.24" y="115.0838">Results Data (async)</text></g><!--link Analytics to BigData--><g class="link" data-entity-1="Analytics" data-entity-2="BigData" data-source-line="50" data-uid="lnk30" id="link_Analytics_BigData"><path d="M1398.255,139.7975 C1400.9525,140.755 1403.6725,141.7219 1406.405,142.6944 C1411.87,144.6394 1411.7349,144.5879 1417.2199,146.5479" fill="none" id="Analytics-to-BigData" style="stroke:#181818;stroke-width:1;"/><polygon fill="#181818" points="1422.87,148.5669,1415.7408,141.7716,1418.1616,146.8844,1413.0488,149.3051,1422.87,148.5669" style="stroke:#181818;stroke-width:1;"/><text fill="#000000" font-family="sans-serif" font-size="13" lengthAdjust="spacing" textLength="234.0317" x="1339.24" y="115.0838">Big Data Processing (tight coupling)</text></g><!--SRC=[XLJ1Zfim4Btp5QCzT7SFsGz0gqWqIQkL5hKAsbwgFJXc2bR1ZcmJ5LNzzuwn0OEAUahyFE_Dl6SRAso3S2gxd6aBhta1EpYezgeaIWj7mIhDsYIvXzClYrgo1ehUM6nDmgUgkozPPslugjLDbAZlW1dmqFCp1jf-7nDoB0M30lLDS1pgFR9LJsBgisOalY15y1RpewZWo2npqt4qHldn21xG1OrS7fJ6sV_2v9kXDZcJhCAMW476ONdLMlYT07n_SKld-trOdLM3OThtv4yIQnrKfmt24HjnGzqFMW7pIdvnKD9IlPShU8rbrmXPhTKoOyYP6mfEiX8oX3EZNdC6DgRAA8RU2awdeQXJa9d0e3AkptXLsWuQz_12W-eVZ18Uhq49bpvESefgjzilebfjB59BGYX-QnNAOYzE9uci-zr_M9zzXPArBt9Lz9BNMadLkUDfsquApgnGCkuzpPz2njqL0pUXLWqy6E8_BWtwTv66trT5npNMKSFC_A_ZqzC-l9KKlb7CQhpOv1mUc5UA_BlwG4tX4rfUZylX_cymeeULml07YkxI2cgZf9bOKOYE5IL1nWnye8PONXZ_EVTP4AR1tWozgjL4YyfelXJEQBh6cgrw5_FulbDOVm26dAoeQWjSTLTtOnx_0W00]--></g></svg>