<svg xmlns="http://www.w3.org/2000/svg" xmlns:xlink="http://www.w3.org/1999/xlink" contentStyleType="text/css" data-diagram-type="DESCRIPTION" height="835px" preserveAspectRatio="none" style="width:1363px;height:835px;background:#FFFFFF;" version="1.1" viewBox="0 0 1363 835" width="1363px" zoomAndPan="magnify"><defs/><g><!--cluster SmartBanking Suite--><g class="cluster" data-entity="SmartBanking Suite" data-source-line="9" data-uid="ent0002" id="cluster_SmartBanking Suite"><rect fill="#F5F5F5" height="822.19" rx="2.5" ry="2.5" style="stroke:#333333;stroke-width:1;" width="950" x="7" y="7"/><text fill="#000000" font-family="sans-serif" font-size="14" font-weight="bold" lengthAdjust="spacing" textLength="157.8076" x="403.0962" y="21.9951">SmartBanking Suite</text></g><!--cluster UI Framework--><g class="cluster" data-entity="UI Framework" data-source-line="10" data-uid="ent0003" id="cluster_UI Framework"><rect fill="#ADD8E6" height="129.3" rx="2.5" ry="2.5" style="stroke:#333333;stroke-width:1;" width="336" x="394" y="58"/><text fill="#000000" font-family="sans-serif" font-size="14" font-style="italic" lengthAdjust="spacing" textLength="52.2539" x="535.873" y="72.9951">&#171;layer&#187;</text><text fill="#000000" font-family="sans-serif" font-size="14" font-weight="bold" lengthAdjust="spacing" textLength="110.2158" x="506.8921" y="89.292">UI Framework</text></g><!--cluster Track Transaction--><g class="cluster" data-entity="Track Transaction" data-source-line="15" data-uid="ent0006" id="cluster_Track Transaction"><rect fill="#FFFFE0" height="129.3" rx="2.5" ry="2.5" style="stroke:#333333;stroke-width:1;" width="386" x="344" y="267.3"/><text fill="#000000" font-family="sans-serif" font-size="14" font-style="italic" lengthAdjust="spacing" textLength="92.7979" x="490.6011" y="282.2951">&#171;subsystem&#187;</text><text fill="#000000" font-family="sans-serif" font-size="14" font-weight="bold" lengthAdjust="spacing" textLength="141.4082" x="466.2959" y="298.592">Track Transaction</text></g><!--cluster Transaction Processing--><g class="cluster" data-entity="Transaction Processing" data-source-line="20" data-uid="ent0009" id="cluster_Transaction Processing"><rect fill="#FFE4E1" height="320.59" rx="2.5" ry="2.5" style="stroke:#333333;stroke-width:1;" width="397" x="39" y="476.6"/><text fill="#000000" font-family="sans-serif" font-size="14" font-style="italic" lengthAdjust="spacing" textLength="92.7979" x="191.1011" y="491.5951">&#171;subsystem&#187;</text><text fill="#000000" font-family="sans-serif" font-size="14" font-weight="bold" lengthAdjust="spacing" textLength="183.9277" x="145.5361" y="507.892">Transaction Processing</text></g><!--cluster Account Services--><g class="cluster" data-entity="Account Services" data-source-line="26" data-uid="ent0013" id="cluster_Account Services"><rect fill="#DDA0DD" height="129.3" rx="2.5" ry="2.5" style="stroke:#333333;stroke-width:1;" width="449" x="476" y="667.89"/><text fill="#000000" font-family="sans-serif" font-size="14" font-style="italic" lengthAdjust="spacing" textLength="92.7979" x="654.1011" y="682.8851">&#171;subsystem&#187;</text><text fill="#000000" font-family="sans-serif" font-size="14" font-weight="bold" lengthAdjust="spacing" textLength="135.085" x="632.9575" y="699.182">Account Services</text></g><!--cluster Notification System--><g class="cluster" data-entity="Notification System" data-source-line="38" data-uid="ent0019" id="cluster_Notification System"><rect fill="#D3D3D3" height="129.3" rx="2.5" ry="2.5" style="stroke:#333333;stroke-width:1;" width="359" x="989" y="667.89"/><text fill="#000000" font-family="sans-serif" font-size="14" font-style="italic" lengthAdjust="spacing" textLength="56.9365" x="1140.0317" y="682.8851">&#171;utility&#187;</text><text fill="#000000" font-family="sans-serif" font-size="14" font-weight="bold" lengthAdjust="spacing" textLength="155.7295" x="1090.6353" y="699.182">Notification System</text></g><!--entity Web Portal--><g class="entity" data-entity="Web Portal" data-source-line="11" data-uid="ent0004" id="entity_Web Portal"><rect fill="#F1F1F1" height="46.2969" rx="2.5" ry="2.5" style="stroke:#181818;stroke-width:0.5;" width="116.5146" x="417.74" y="117"/><rect fill="#F1F1F1" height="10" style="stroke:#181818;stroke-width:0.5;" width="15" x="514.2546" y="122"/><rect fill="#F1F1F1" height="2" style="stroke:#181818;stroke-width:0.5;" width="4" x="512.2546" y="124"/><rect fill="#F1F1F1" height="2" style="stroke:#181818;stroke-width:0.5;" width="4" x="512.2546" y="128"/><text fill="#000000" font-family="sans-serif" font-size="14" lengthAdjust="spacing" textLength="76.5146" x="432.74" y="149.9951">Web Portal</text></g><!--entity Mobile App--><g class="entity" data-entity="Mobile App" data-source-line="12" data-uid="ent0005" id="entity_Mobile App"><rect fill="#F1F1F1" height="46.2969" rx="2.5" ry="2.5" style="stroke:#181818;stroke-width:0.5;" width="117.7246" x="569.14" y="117"/><rect fill="#F1F1F1" height="10" style="stroke:#181818;stroke-width:0.5;" width="15" x="666.8646" y="122"/><rect fill="#F1F1F1" height="2" style="stroke:#181818;stroke-width:0.5;" width="4" x="664.8646" y="124"/><rect fill="#F1F1F1" height="2" style="stroke:#181818;stroke-width:0.5;" width="4" x="664.8646" y="128"/><text fill="#000000" font-family="sans-serif" font-size="14" lengthAdjust="spacing" textLength="77.7246" x="584.14" y="149.9951">Mobile App</text></g><!--entity Status Tracker--><g class="entity" data-entity="Status Tracker" data-source-line="16" data-uid="ent0007" id="entity_Status Tracker"><rect fill="#F1F1F1" height="46.2969" rx="2.5" ry="2.5" style="stroke:#181818;stroke-width:0.5;" width="142.1221" x="367.94" y="326.3"/><rect fill="#F1F1F1" height="10" style="stroke:#181818;stroke-width:0.5;" width="15" x="490.0621" y="331.3"/><rect fill="#F1F1F1" height="2" style="stroke:#181818;stroke-width:0.5;" width="4" x="488.0621" y="333.3"/><rect fill="#F1F1F1" height="2" style="stroke:#181818;stroke-width:0.5;" width="4" x="488.0621" y="337.3"/><text fill="#000000" font-family="sans-serif" font-size="14" lengthAdjust="spacing" textLength="102.1221" x="382.94" y="359.2951">Status Tracker</text></g><!--entity History Viewer--><g class="entity" data-entity="History Viewer" data-source-line="17" data-uid="ent0008" id="entity_History Viewer"><rect fill="#F1F1F1" height="46.2969" rx="2.5" ry="2.5" style="stroke:#181818;stroke-width:0.5;" width="142.1563" x="544.92" y="326.3"/><rect fill="#F1F1F1" height="10" style="stroke:#181818;stroke-width:0.5;" width="15" x="667.0763" y="331.3"/><rect fill="#F1F1F1" height="2" style="stroke:#181818;stroke-width:0.5;" width="4" x="665.0763" y="333.3"/><rect fill="#F1F1F1" height="2" style="stroke:#181818;stroke-width:0.5;" width="4" x="665.0763" y="337.3"/><text fill="#000000" font-family="sans-serif" font-size="14" lengthAdjust="spacing" textLength="102.1563" x="559.92" y="359.2951">History Viewer</text></g><!--entity Fund Transfer--><g class="entity" data-entity="Fund Transfer" data-source-line="21" data-uid="ent0010" id="entity_Fund Transfer"><rect fill="#F1F1F1" height="46.2969" rx="2.5" ry="2.5" style="stroke:#181818;stroke-width:0.5;" width="137.4873" x="63.26" y="535.6"/><rect fill="#F1F1F1" height="10" style="stroke:#181818;stroke-width:0.5;" width="15" x="180.7473" y="540.6"/><rect fill="#F1F1F1" height="2" style="stroke:#181818;stroke-width:0.5;" width="4" x="178.7473" y="542.6"/><rect fill="#F1F1F1" height="2" style="stroke:#181818;stroke-width:0.5;" width="4" x="178.7473" y="546.6"/><text fill="#000000" font-family="sans-serif" font-size="14" lengthAdjust="spacing" textLength="97.4873" x="78.26" y="568.5951">Fund Transfer</text></g><!--entity Payment Verifier--><g class="entity" data-entity="Payment Verifier" data-source-line="22" data-uid="ent0011" id="entity_Payment Verifier"><rect fill="#F1F1F1" height="46.2969" rx="2.5" ry="2.5" style="stroke:#181818;stroke-width:0.5;" width="157.3936" x="235.3" y="535.6"/><rect fill="#F1F1F1" height="10" style="stroke:#181818;stroke-width:0.5;" width="15" x="372.6936" y="540.6"/><rect fill="#F1F1F1" height="2" style="stroke:#181818;stroke-width:0.5;" width="4" x="370.6936" y="542.6"/><rect fill="#F1F1F1" height="2" style="stroke:#181818;stroke-width:0.5;" width="4" x="370.6936" y="546.6"/><text fill="#000000" font-family="sans-serif" font-size="14" lengthAdjust="spacing" textLength="117.3936" x="250.3" y="568.5951">Payment Verifier</text></g><!--entity Transaction Logger--><g class="entity" data-entity="Transaction Logger" data-source-line="23" data-uid="ent0012" id="entity_Transaction Logger"><rect fill="#F1F1F1" height="46.2969" rx="2.5" ry="2.5" style="stroke:#181818;stroke-width:0.5;" width="175.1055" x="63.45" y="726.89"/><rect fill="#F1F1F1" height="10" style="stroke:#181818;stroke-width:0.5;" width="15" x="218.5555" y="731.89"/><rect fill="#F1F1F1" height="2" style="stroke:#181818;stroke-width:0.5;" width="4" x="216.5555" y="733.89"/><rect fill="#F1F1F1" height="2" style="stroke:#181818;stroke-width:0.5;" width="4" x="216.5555" y="737.89"/><text fill="#000000" font-family="sans-serif" font-size="14" lengthAdjust="spacing" textLength="135.1055" x="78.45" y="759.8851">Transaction Logger</text></g><!--entity Balance Checker--><g class="entity" data-entity="Balance Checker" data-source-line="27" data-uid="ent0014" id="entity_Balance Checker"><rect fill="#F1F1F1" height="46.2969" rx="2.5" ry="2.5" style="stroke:#181818;stroke-width:0.5;" width="157.7217" x="500.14" y="726.89"/><rect fill="#F1F1F1" height="10" style="stroke:#181818;stroke-width:0.5;" width="15" x="637.8617" y="731.89"/><rect fill="#F1F1F1" height="2" style="stroke:#181818;stroke-width:0.5;" width="4" x="635.8617" y="733.89"/><rect fill="#F1F1F1" height="2" style="stroke:#181818;stroke-width:0.5;" width="4" x="635.8617" y="737.89"/><text fill="#000000" font-family="sans-serif" font-size="14" lengthAdjust="spacing" textLength="117.7217" x="515.14" y="759.8851">Balance Checker</text></g><!--entity Statement Generator--><g class="entity" data-entity="Statement Generator" data-source-line="28" data-uid="ent0015" id="entity_Statement Generator"><rect fill="#F1F1F1" height="46.2969" rx="2.5" ry="2.5" style="stroke:#181818;stroke-width:0.5;" width="189.2148" x="692.39" y="726.89"/><rect fill="#F1F1F1" height="10" style="stroke:#181818;stroke-width:0.5;" width="15" x="861.6048" y="731.89"/><rect fill="#F1F1F1" height="2" style="stroke:#181818;stroke-width:0.5;" width="4" x="859.6048" y="733.89"/><rect fill="#F1F1F1" height="2" style="stroke:#181818;stroke-width:0.5;" width="4" x="859.6048" y="737.89"/><text fill="#000000" font-family="sans-serif" font-size="14" lengthAdjust="spacing" textLength="149.2148" x="707.39" y="759.8851">Statement Generator</text></g><!--entity Email Alerts--><g class="entity" data-entity="Email Alerts" data-source-line="39" data-uid="ent0020" id="entity_Email Alerts"><rect fill="#F1F1F1" height="46.2969" rx="2.5" ry="2.5" style="stroke:#181818;stroke-width:0.5;" width="123.9111" x="1013.04" y="726.89"/><rect fill="#F1F1F1" height="10" style="stroke:#181818;stroke-width:0.5;" width="15" x="1116.9511" y="731.89"/><rect fill="#F1F1F1" height="2" style="stroke:#181818;stroke-width:0.5;" width="4" x="1114.9511" y="733.89"/><rect fill="#F1F1F1" height="2" style="stroke:#181818;stroke-width:0.5;" width="4" x="1114.9511" y="737.89"/><text fill="#000000" font-family="sans-serif" font-size="14" lengthAdjust="spacing" textLength="83.9111" x="1028.04" y="759.8851">Email Alerts</text></g><!--entity SMS Updates--><g class="entity" data-entity="SMS Updates" data-source-line="40" data-uid="ent0021" id="entity_SMS Updates"><rect fill="#F1F1F1" height="46.2969" rx="2.5" ry="2.5" style="stroke:#181818;stroke-width:0.5;" width="132.2988" x="1171.85" y="726.89"/><rect fill="#F1F1F1" height="10" style="stroke:#181818;stroke-width:0.5;" width="15" x="1284.1488" y="731.89"/><rect fill="#F1F1F1" height="2" style="stroke:#181818;stroke-width:0.5;" width="4" x="1282.1488" y="733.89"/><rect fill="#F1F1F1" height="2" style="stroke:#181818;stroke-width:0.5;" width="4" x="1282.1488" y="737.89"/><text fill="#000000" font-family="sans-serif" font-size="14" lengthAdjust="spacing" textLength="92.2988" x="1186.85" y="759.8851">SMS Updates</text></g><g class="entity" data-entity="GMN23" data-source-line="47" data-uid="ent0024" id="entity_GMN23"><path d="M973.31,120.02 L973.31,160.2856 L1172.6982,160.2856 L1172.6982,130.02 L1162.6982,120.02 L973.31,120.02" fill="#FEFFDD" style="stroke:#181818;stroke-width:0.5;"/><path d="M1162.6982,120.02 L1162.6982,130.02 L1172.6982,130.02 L1162.6982,120.02" fill="#FEFFDD" style="stroke:#181818;stroke-width:1;"/><text fill="#000000" font-family="sans-serif" font-size="13" lengthAdjust="spacing" textLength="178.3882" x="979.31" y="137.0869">Analogous to "Track Order"</text><text fill="#000000" font-family="sans-serif" font-size="13" lengthAdjust="spacing" textLength="155.4922" x="979.31" y="152.2197">in e-commerce systems</text></g><g class="entity" data-entity="GMN26" data-source-line="52" data-uid="ent0027" id="entity_GMN26"><path d="M973.45,538.61 L973.45,578.8756 L1180.5569,578.8756 L1180.5569,548.61 L1170.5569,538.61 L973.45,538.61" fill="#FEFFDD" style="stroke:#181818;stroke-width:0.5;"/><path d="M1170.5569,538.61 L1170.5569,548.61 L1180.5569,548.61 L1170.5569,538.61" fill="#FEFFDD" style="stroke:#181818;stroke-width:1;"/><text fill="#000000" font-family="sans-serif" font-size="13" lengthAdjust="spacing" textLength="186.1069" x="979.45" y="555.6769">Replaces "Order Processing"</text><text fill="#000000" font-family="sans-serif" font-size="13" lengthAdjust="spacing" textLength="121.4307" x="979.45" y="570.8097">in banking context</text></g><!--link UI Framework to Track Transaction--><g class="link" data-entity-1="UI Framework" data-entity-2="Track Transaction" data-source-line="33" data-uid="lnk16" id="link_UI Framework_Track Transaction"><path d="M722,187.7885 C722,188.1224 722,188.4575 722,188.7937 C722,189.466 722,190.1429 722,190.8241 C722,196.2736 722,201.9992 722,207.9088 C722,219.728 722,232.2831 722,244.8375 C722,251.1147 722,257.3917 722,263.5764 C722,264.3495 722,265.1211 722,265.8911 C722,266.2762 722,260.6608 722,261.0449" fill="none" id="UI Framework-to-Track Transaction" style="stroke:#181818;stroke-width:1;stroke-dasharray:7.0,7.0;"/><polygon fill="#181818" points="722,267.0449,726,258.0449,722,262.0449,718,258.0449,722,267.0449" style="stroke:#181818;stroke-width:1;"/><text fill="#000000" font-family="sans-serif" font-size="13" lengthAdjust="spacing" textLength="59.7124" x="752.8784" y="224.3669">&#171;access&#187;</text><text fill="#000000" font-family="sans-serif" font-size="13" lengthAdjust="spacing" textLength="119.4692" x="723" y="239.4997">(initiates tracking)</text></g><!--link Track Transaction to Transaction Processing--><g class="link" data-entity-1="Track Transaction" data-entity-2="Transaction Processing" data-source-line="34" data-uid="lnk17" id="link_Track Transaction_Transaction Processing"><path d="M712.4659,396.6176 C712.1137,397.4396 711.7486,398.2567 711.3701,399.0671 C710.613,400.688 709.8021,402.2826 708.9335,403.8381 C707.1964,406.9491 705.2288,409.9038 703,412.6 C659.655,465.02 592.36,501 535.1913,524.025 C506.6069,535.5375 480.5541,543.8113 461.2923,549.2819 C451.6615,552.0172 443.7284,554.0517 438.0255,555.4399 C437.6691,555.5267 437.3214,555.6109 436.9825,555.6926 C436.8131,555.7335 442.4801,554.3732 442.3151,554.4128" fill="none" id="Track Transaction-to-Transaction Processing" style="stroke:#181818;stroke-width:1;stroke-dasharray:7.0,7.0;"/><polygon fill="#181818" points="436.4808,555.8134,446.1659,557.602,441.3427,554.6462,444.2985,549.823,436.4808,555.8134" style="stroke:#181818;stroke-width:1;"/><text fill="#000000" font-family="sans-serif" font-size="13" lengthAdjust="spacing" textLength="58.8301" x="707.9072" y="433.6669">&#171;import&#187;</text><text fill="#000000" font-family="sans-serif" font-size="13" lengthAdjust="spacing" textLength="90.6445" x="692" y="448.7997">(fetch details)</text></g><!--link Transaction Processing to Account Services--><g class="link" data-entity-1="Transaction Processing" data-entity-2="Account Services" data-source-line="35" data-uid="lnk18" id="link_Transaction Processing_Account Services"><path d="M436.1775,560.1403 C437.1413,560.1895 438.1853,560.2437 439.3069,560.303 C441.5502,560.4214 444.1036,560.5601 446.9461,560.7203 C458.316,561.3611 474.3095,562.3457 493.5639,563.7533 C532.0728,566.5684 583.6256,571.0756 637.3213,577.9088 C744.7125,591.575 860.675,614.545 898,651.89 C901.8275,655.7188 905.0008,660.0763 907.6229,664.7744 C907.9507,665.3617 908.2698,665.9543 908.5805,666.5518 C908.7359,666.8506 906.1975,661.7882 906.3487,662.0894" fill="none" id="Transaction Processing-to-Account Services" style="stroke:#181818;stroke-width:1;stroke-dasharray:7.0,7.0;"/><polygon fill="#181818" points="909.0404,667.4518,908.5778,657.6138,906.7973,662.9831,901.428,661.2027,909.0404,667.4518" style="stroke:#181818;stroke-width:1;"/><text fill="#000000" font-family="sans-serif" font-size="13" lengthAdjust="spacing" textLength="58.8301" x="902.2219" y="624.9569">&#171;import&#187;</text><text fill="#000000" font-family="sans-serif" font-size="13" lengthAdjust="spacing" textLength="87.2739" x="888" y="640.0897">(verify funds)</text></g><!--link Transaction Processing to Notification System--><g class="link" data-entity-1="Transaction Processing" data-entity-2="Notification System" data-source-line="43" data-uid="lnk22" id="link_Transaction Processing_Notification System"><path d="M436.3846,560.4464 C436.6035,560.4648 436.8264,560.4835 437.0535,560.5026 C438.8697,560.6551 440.9472,560.8299 443.2749,561.0261 C452.5855,561.8111 465.8989,562.9401 482.5059,564.3658 C515.72,567.2172 562.1088,571.2556 616,576.1038 C723.7825,585.8 861.575,598.735 984,611.89 C1101.52,624.52 1130.6,630.26 1248,643.89 C1263.99,645.75 1308.1,641.05 1320,651.89 C1324.0088,655.545 1327.3338,659.7714 1330.0826,664.3733 C1330.4262,664.9485 1330.7608,665.5296 1331.0866,666.1162 C1331.2495,666.4095 1331.4102,666.7041 1331.5687,667.0001 C1331.648,667.1481 1328.9337,661.9862 1329.0119,662.1348" fill="none" id="Transaction Processing-to-Notification System" style="stroke:#181818;stroke-width:1;stroke-dasharray:7.0,7.0;"/><polygon fill="#181818" points="1331.8049,667.4451,1331.1555,657.6176,1329.4774,663.0199,1324.0752,661.3417,1331.8049,667.4451" style="stroke:#181818;stroke-width:1;"/><text fill="#000000" font-family="sans-serif" font-size="13" lengthAdjust="spacing" textLength="59.7124" x="1272.5435" y="624.9569">&#171;access&#187;</text><text fill="#000000" font-family="sans-serif" font-size="13" lengthAdjust="spacing" textLength="106.7993" x="1249" y="640.0897">(status updates)</text></g><!--link GMN23 to Track Transaction--><g class="link" data-entity-1="GMN23" data-entity-2="Track Transaction" data-source-line="47" data-uid="lnk25" id="link_GMN23_Track Transaction"><path d="M1039.98,160.65 C996.975,186.05 919.2725,231.94 851.4463,271.9975 C817.5331,292.0263 786.0891,310.5969 762.6858,324.4191 C750.9841,331.3302 741.2927,337.0541 734.3079,341.1797 C733.4348,341.6954 732.604,342.1861 731.8169,342.6511 C731.4233,342.8836 731.0406,343.1096 730.669,343.3291 C730.4832,343.4388 730.3002,343.5469 730.12,343.6534" fill="none" id="GMN23-Track Transaction" style="stroke:#181818;stroke-width:1;stroke-dasharray:7.0,7.0;"/></g><!--link Transaction Processing to GMN26--><g class="link" data-entity-1="Transaction Processing" data-entity-2="GMN26" data-source-line="52" data-uid="lnk28" id="link_Transaction Processing_GMN26"><path d="M437.1383,558.74 C439.9744,558.74 442.8105,558.74 445.6466,558.74 C451.3188,558.74 456.9909,558.74 462.6631,558.74 C474.0075,558.74 485.3519,558.74 496.6962,558.74 C519.385,558.74 542.0738,558.74 564.7625,558.74 C610.14,558.74 655.5175,558.74 700.895,558.74 C791.65,558.74 882.405,558.74 973.16,558.74" fill="none" id="Transaction Processing-GMN26" style="stroke:#181818;stroke-width:1;stroke-dasharray:7.0,7.0;"/></g><!--SRC=[VLHDZzem4BtdLupOGzj3zrBrKcsH0WiqAX_HXjrLHVTWmX0i73ko9xkDglxtZXCIKOWQ99ICxVVUl3UoEqfT22joA4Hw51acL2a4Yoa9dIaCtEK6-1q0ZFWziwRKkx5HniBDzBF_-HLZTsXFrK_rmzMfqTGWRutQ1N-2u1ryzGyimcW9SJZ-7iucILCBMgP1aWjB8w5PGmP9AGa7DNstuJ62AMl3DsEF0xYxKw92Enp2pLnc1ngfif4Bi7d6BSJ6ab0lJM5XjfBrX4NX2wpe37Pj-GtuNpkHaZJQOxjowof7c7VuFr0fyzOo92IeT52VHNjY-IOT6Ll1ayItfdZ5r790R4sApd6lLtGBXgaUZElQcRBrZS1znnMBAaTDy8HMxcLNFgUOcophan6cAOT9aA1zbIpYIa2iohpb7WabT8emFk1PfxvzhFbdgD4ARhlXEGlxVX9FblUJvJZgihw8yFPss6l_5nOaKc_FSFXJlvTQacG-1-JticKVWhvZBLolnnvJvWKFHOsvHqeFi4CIKha6hlTOZNbjs0NQgm-XWZtdn62T0ylLEff6ut0ThPOmdQ-UBqT-QOZ3IqLDczJ- -p1AaafIrOtUp8ggpcCpoLalX0ejEM_u9baay5Zil3iltlp_DzBBT-6sQoQxR43_xQOBKXj285E0sVSboCf2BPJ932EHQRUi_6tX5wK6_9YQF4VBezKCdWkGfzm31msyzQst17qzCT035ahmDmngx8jLfjcUxfEKxoJyHHt7Nm00]--></g></svg>